<?xml version="1.0" encoding="UTF-8"?>
<svg width="20px" height="22px" viewBox="0 0 20 22" version="1.1" xmlns="http://www.w3.org/2000/svg" xmlns:xlink="http://www.w3.org/1999/xlink">
    <title>Outgoing-mail</title>
    <g id="User" stroke="none" stroke-width="1" fill="none" fill-rule="evenodd">
        <g id="Desktop-HD-Copy-6" transform="translate(-731.000000, -704.000000)">
            <g id="Group-4" transform="translate(140.000000, 704.000000)">
                <rect id="Rectangle-Copy-3" x="591" y="5" width="274" height="127"></rect>
                <g id="Outgoing-mail" opacity="0.699999988" transform="translate(591.000000, 0.000000)">
                    <rect id="bound" x="0" y="1" width="20" height="20"></rect>
                    <path d="M15.5,8.5 C16.6045695,8.5 17.5,9.3954305 17.5,10.5 L17.5,17.3333333 C17.5,18.4379028 16.6045695,19.3333333 15.5,19.3333333 L4.5,19.3333333 C3.3954305,19.3333333 2.5,18.4379028 2.5,17.3333333 L2.5,10.5 C2.5,9.3954305 3.3954305,8.5 4.5,8.5 L15.5,8.5 Z M15.9669611,10.2870209 C15.8033123,9.98310172 15.4242735,9.86939008 15.1203543,10.0330389 L15.1203543,10.0330389 L10,12.7901527 L4.87964572,10.0330389 C4.5757265,9.86939008 4.19668771,9.98310172 4.0330389,10.2870209 C3.86939008,10.5909402 3.98310172,10.969979 4.28702094,11.1336278 L4.28702094,11.1336278 L9.70368761,14.0502944 C9.88867281,14.1499019 10.1113272,14.1499019 10.2963124,14.0502944 L10.2963124,14.0502944 L15.7129791,11.1336278 C16.0168983,10.969979 16.1306099,10.5909402 15.9669611,10.2870209 Z" id="Combined-Shape" fill="#2AA580"></path>
                    <path d="M9.05343269,1.50334222 L9.05343269,2.95399104 L9.05343269,2.95399104 L7.4637066,2.95399104 C7.18756422,2.95399104 6.9637066,3.17784867 6.9637066,3.45399104 L6.9637066,4.14007329 C6.9637066,4.41621567 7.18756422,4.64007329 7.4637066,4.64007329 L9.05343269,4.64007329 L9.05343269,4.64007329 L9.05343269,6.09072212 C9.05343269,6.36686449 9.27729031,6.59072212 9.55343269,6.59072212 C9.67174431,6.59072212 9.78622293,6.54876834 9.87651761,6.47231894 L12.5856035,4.17862899 C12.7963536,4.00019412 12.8225503,3.68469735 12.6441154,3.47394725 C12.6262616,3.45286009 12.6066906,3.43328912 12.5856035,3.41543535 L9.87651761,1.1217454 C9.6657675,0.943310525 9.35027074,0.969507195 9.17183586,1.1802573 C9.09538646,1.27055198 9.05343269,1.38503059 9.05343269,1.50334222 Z" id="Shape" fill="#455065" fill-rule="nonzero" opacity="0.3" transform="translate(10.000008, 3.797032) rotate(-90.000000) translate(-10.000008, -3.797032) "></path>
                </g>
            </g>
        </g>
    </g>
</svg>